<svg preserveAspectRatio="xMidYMid meet" data-bbox="48 35 104 130" viewBox="48 35 104 130" height="200" width="200" xmlns="http://www.w3.org/2000/svg" data-type="color" role="presentation" aria-hidden="true" aria-label=""><defs><style>#comp-kpd41b8x svg [data-color="1"] {fill: #4F878F;}</style></defs>
    <g>
        <path d="M130.105 156.702h-60.21c-6.036 0-10.947-4.962-10.947-11.064V68.191c0-6.102 4.911-11.064 10.947-11.064h60.211c6.038 0 10.947 4.962 10.947 11.064v77.447c0 6.102-4.91 11.064-10.948 11.064zM69.895 62.66c-3.019 0-5.474 2.482-5.474 5.532v77.447c0 3.05 2.455 5.532 5.474 5.532h60.211c3.017 0 5.474-2.482 5.474-5.532V68.191c0-3.05-2.456-5.532-5.474-5.532H69.895z" fill="#F99410" data-color="1"/>
        <path d="M132.842 165h-13.684c-3.017 0-5.474-2.482-5.474-5.532v-5.532h5.474v5.532h13.684v-5.532h5.474v5.532c0 3.05-2.456 5.532-5.474 5.532z" fill="#F99410" data-color="1"/>
        <path d="M80.842 165H67.158c-3.019 0-5.474-2.482-5.474-5.532v-5.532h5.474v5.532h13.684v-5.532h5.474v5.532c0 3.05-2.455 5.532-5.474 5.532z" fill="#F99410" data-color="1"/>
        <path fill="#F99410" d="M138.316 117.979v5.532H61.684v-5.532h76.632z" data-color="1"/>
        <path fill="#F99410" d="M83.579 131.809v5.532H69.895v-5.532h13.684z" data-color="1"/>
        <path fill="#F99410" d="M130.105 131.809v5.532h-13.684v-5.532h13.684z" data-color="1"/>
        <path fill="#F99410" d="M138.316 70.957v5.532H61.684v-5.532h76.632z" data-color="1"/>
        <path d="M53.474 104.149H48V87.553c0-.87.405-1.691 1.094-2.212l10.947-8.298 3.285 4.424-9.853 7.469v15.213z" fill="#F99410" data-color="1"/>
        <path d="M152 104.149h-5.474V88.936l-9.852-7.469 3.282-4.424 10.947 8.298a2.772 2.772 0 0 1 1.096 2.212v16.596z" fill="#F99410" data-color="1"/>
        <path d="M113.267 61.36l-4.64-2.933 13.684-22.128a2.729 2.729 0 0 1 2.32-1.299h8.211v5.532h-6.692L113.267 61.36z" fill="#F99410" data-color="1"/>
        <path d="M88.637 61.36l-4.642-2.933 13.684-22.128A2.735 2.735 0 0 1 100 35h8.211v5.532h-6.692L88.637 61.36z" fill="#F99410" data-color="1"/>
        <path fill="#F99410" d="M102.737 73.723v47.021h-5.474V73.723h5.474z" data-color="1"/>
    </g>
</svg>