<svg preserveAspectRatio="xMidYMid meet" data-bbox="48 44.003 104 111.994" viewBox="48 44.003 104 111.994" height="200" width="200" xmlns="http://www.w3.org/2000/svg" data-type="color" role="presentation" aria-hidden="true"><defs><style>#comp-klv3zmw0 svg [data-color="1"] {fill: #4F878F;}</style></defs>
    <g>
        <path d="M130.105 147.803h-60.21c-6.036 0-10.947-4.902-10.947-10.926V54.929c0-6.025 4.911-10.926 10.947-10.926h60.211c6.038 0 10.947 4.902 10.947 10.926v81.947c0 6.025-4.91 10.927-10.948 10.927zm-60.21-98.337c-3.019 0-5.474 2.45-5.474 5.463v81.947c0 3.013 2.455 5.463 5.474 5.463h60.211c3.017 0 5.474-2.45 5.474-5.463V54.929c0-3.013-2.456-5.463-5.474-5.463H69.895z" fill="#F99410" data-color="1"/>
        <path d="M132.842 155.997h-13.684c-3.017 0-5.474-2.45-5.474-5.463v-5.463h5.474v5.463h13.684v-5.463h5.474v5.463c0 3.013-2.456 5.463-5.474 5.463z" fill="#F99410" data-color="1"/>
        <path d="M80.842 155.997H67.158c-3.019 0-5.474-2.45-5.474-5.463v-5.463h5.474v5.463h13.684v-5.463h5.474v5.463c0 3.013-2.455 5.463-5.474 5.463z" fill="#F99410" data-color="1"/>
        <path fill="#F99410" d="M138.316 106.829v5.463H61.684v-5.463h76.632z" data-color="1"/>
        <path fill="#F99410" d="M83.579 120.487v5.463H69.895v-5.463h13.684z" data-color="1"/>
        <path fill="#F99410" d="M130.105 120.487v5.463h-13.684v-5.463h13.684z" data-color="1"/>
        <path fill="#F99410" d="M138.316 60.392v5.463H61.684v-5.463h76.632z" data-color="1"/>
        <path d="M53.474 90.439H48V74.05c0-.86.405-1.67 1.094-2.185l10.947-8.195 3.285 4.369-9.853 7.376v15.024z" fill="#F99410" data-color="1"/>
        <path d="M152 90.439h-5.474V75.416l-9.852-7.376 3.282-4.369 10.947 8.195A2.721 2.721 0 0 1 152 74.05v16.389z" fill="#F99410" data-color="1"/>
        <path fill="#F99410" d="M102.737 63.124v46.437h-5.474V63.124h5.474z" data-color="1"/>
    </g>
</svg>