<svg preserveAspectRatio="xMidYMid meet" data-bbox="14 10 172 180" viewBox="14 10 172 180" height="200" width="200" xmlns="http://www.w3.org/2000/svg" data-type="color" role="presentation" aria-hidden="true"><defs><style>#comp-klv3xyfm svg [data-color="1"] {fill: #4F878F;}</style></defs>
    <g>
        <path d="M66.344 190a3.693 3.693 0 0 1-1.851-.494 3.756 3.756 0 0 1-1.391-5.116l14.957-26.25c1.026-1.798 3.314-2.428 5.101-1.395a3.756 3.756 0 0 1 1.391 5.116l-14.957 26.25a3.733 3.733 0 0 1-3.25 1.889z" fill="#1EBA9A" data-color="1"/>
        <path d="M133.656 190a3.732 3.732 0 0 1-3.25-1.89l-14.957-26.25a3.756 3.756 0 0 1 1.391-5.116 3.728 3.728 0 0 1 5.101 1.395l14.957 26.25a3.756 3.756 0 0 1-1.391 5.116 3.684 3.684 0 0 1-1.851.495z" fill="#1EBA9A" data-color="1"/>
        <path d="M126.174 163.75H73.826c-10.308 0-18.696-8.412-18.696-18.75V66.25c0-10.338 8.387-18.75 18.696-18.75h52.348c10.308 0 18.696 8.412 18.696 18.75V145c0 10.338-8.388 18.75-18.696 18.75zM73.826 55c-6.186 0-11.217 5.046-11.217 11.25V145c0 6.204 5.032 11.25 11.217 11.25h52.348c6.186 0 11.217-5.046 11.217-11.25V66.25c0-6.204-5.032-11.25-11.217-11.25H73.826z" fill="#1EBA9A" data-color="1"/>
        <path fill="#1EBA9A" d="M141.131 111.25v7.5H58.87v-7.5h82.261z" data-color="1"/>
        <path fill="#1EBA9A" d="M85.044 126.25v7.5H70.087v-7.5h14.957z" data-color="1"/>
        <path fill="#1EBA9A" d="M129.914 126.25v7.5h-14.957v-7.5h14.957z" data-color="1"/>
        <path d="M43.919 160.355a3.723 3.723 0 0 1-2.551-1.007C23.976 143.088 14 120.087 14 96.25 14 48.69 52.58 10 100 10s86 38.69 86 86.25c0 23.837-9.974 46.831-27.362 63.094a3.727 3.727 0 0 1-5.286-.187 3.757 3.757 0 0 1 .184-5.299c15.879-14.846 24.985-35.845 24.985-57.609 0-43.422-35.224-78.75-78.522-78.75S21.478 52.828 21.478 96.25c0 21.764 9.109 42.766 24.991 57.612a3.757 3.757 0 0 1 .184 5.299 3.71 3.71 0 0 1-2.734 1.194z" fill="#1EBA9A" data-color="1"/>
        <path fill="#1EBA9A" d="M126.174 171.25v7.5H73.826v-7.5h52.348z" data-color="1"/>
        <path fill="#1EBA9A" d="M141.131 66.25v7.5H58.87v-7.5h82.261z" data-color="1"/>
        <path fill="#1EBA9A" d="M103.739 70v45h-7.478V70h7.478z" data-color="1"/>
    </g>
</svg>